<svg xmlns="http://www.w3.org/2000/svg" viewBox="0 0 360 220" role="img" aria-label="Coffee cup illustration">
  <rect width="360" height="220" rx="18" fill="#fff3e2"/>
  <ellipse cx="180" cy="186" rx="96" ry="12" fill="#f0ddc4"/>
  <path d="M112 78h116v58a44 44 0 0 1-44 44h-28a44 44 0 0 1-44-44z" fill="#b45309"/>
  <path d="M112 78h116v16H112z" fill="#92400e"/>
  <path d="M228 96h20a26 26 0 0 1 0 52h-6" fill="none" stroke="#b45309" stroke-width="12" stroke-linecap="round"/>
  <path d="M150 58c0-12 12-12 12-24" fill="none" stroke="#d6b189" stroke-width="7" stroke-linecap="round"/>
  <path d="M180 58c0-12 12-12 12-24" fill="none" stroke="#d6b189" stroke-width="7" stroke-linecap="round"/>
  <path d="M210 58c0-12 12-12 12-24" fill="none" stroke="#d6b189" stroke-width="7" stroke-linecap="round"/>
</svg>
